<svg width="20" height="20" viewBox="0 0 20 20" fill="none" xmlns="http://www.w3.org/2000/svg">
<path d="M1.72006 10.29C1.65061 10.1029 1.65061 9.89709 1.72006 9.71C2.39647 8.06987 3.54465 6.66753 5.01903 5.68074C6.49341 4.69396 8.22759 4.16718 10.0017 4.16718C11.7759 4.16718 13.51 4.69396 14.9844 5.68074C16.4588 6.66753 17.607 8.06987 18.2834 9.71C18.3528 9.89709 18.3528 10.1029 18.2834 10.29C17.607 11.9301 16.4588 13.3325 14.9844 14.3192C13.51 15.306 11.7759 15.8328 10.0017 15.8328C8.22759 15.8328 6.49341 15.306 5.01903 14.3192C3.54465 13.3325 2.39647 11.9301 1.72006 10.29Z" stroke="#251F1F" stroke-width="1.5" stroke-linecap="round" stroke-linejoin="round"/>
<path d="M10 12.5C11.3807 12.5 12.5 11.3807 12.5 10C12.5 8.61929 11.3807 7.5 10 7.5C8.61929 7.5 7.5 8.61929 7.5 10C7.5 11.3807 8.61929 12.5 10 12.5Z" stroke="#251F1F" stroke-width="1.5" stroke-linecap="round" stroke-linejoin="round"/>
</svg>
