<svg width="20" height="16" viewBox="0 0 20 16" fill="none" xmlns="http://www.w3.org/2000/svg">
<path d="M8.90625 4.625C8.9375 4.8125 8.96875 5.03125 8.96875 5.25C8.96875 5.5 8.9375 5.71875 8.90625 5.90625L9.59375 6.53125C9.8125 6.71875 9.90625 7.03125 9.78125 7.3125C9.71875 7.46875 9.625 7.65625 9.5625 7.8125L9.46875 7.96875C9.34375 8.125 9.25 8.28125 9.15625 8.4375C8.96875 8.65625 8.65625 8.75 8.375 8.65625L7.5 8.34375C7.15625 8.625 6.78125 8.84375 6.375 9L6.15625 9.90625C6.125 10.2188 5.875 10.4375 5.59375 10.4688C5.375 10.5 5.15625 10.5 4.96875 10.5C4.75 10.5 4.53125 10.5 4.3125 10.4688C4.03125 10.4375 3.78125 10.2188 3.75 9.90625L3.53125 9C3.125 8.84375 2.75 8.625 2.40625 8.34375L1.53125 8.65625C1.25 8.75 0.9375 8.65625 0.75 8.4375C0.65625 8.28125 0.53125 8.125 0.4375 7.96875L0.34375 7.8125C0.28125 7.65625 0.1875 7.46875 0.125 7.3125C0 7.03125 0.09375 6.71875 0.3125 6.53125L1 5.90625C0.96875 5.71875 0.9375 5.5 0.9375 5.25C0.9375 5.03125 0.96875 4.8125 1 4.625L0.3125 4C0.09375 3.78125 0 3.46875 0.125 3.21875C0.1875 3.03125 0.28125 2.875 0.34375 2.71875L0.4375 2.5625C0.53125 2.40625 0.65625 2.25 0.75 2.09375C0.9375 1.875 1.25 1.78125 1.53125 1.875L2.40625 2.1875C2.75 1.90625 3.125 1.6875 3.53125 1.53125L3.75 0.625C3.78125 0.3125 4.03125 0.09375 4.3125 0.0625C4.53125 0.03125 4.75 0 4.96875 0C5.15625 0 5.375 0.03125 5.59375 0.0625C5.875 0.09375 6.125 0.3125 6.15625 0.625L6.375 1.53125C6.78125 1.6875 7.15625 1.90625 7.5 2.1875L8.375 1.875C8.65625 1.78125 8.96875 1.875 9.15625 2.09375C9.25 2.25 9.34375 2.40625 9.46875 2.5625L9.5625 2.71875C9.625 2.875 9.71875 3.03125 9.78125 3.21875C9.90625 3.46875 9.8125 3.78125 9.59375 4L8.90625 4.625ZM4.96875 3.75C4.125 3.75 3.46875 4.4375 3.46875 5.25C3.46875 6.09375 4.125 6.75 4.96875 6.75C5.78125 6.75 6.46875 6.09375 6.46875 5.25C6.46875 4.4375 5.78125 3.75 4.96875 3.75ZM15.0938 14.7188C14.9062 14.75 14.6875 14.75 14.4688 14.75C14.2188 14.75 14 14.75 13.8125 14.7188L13.1875 15.4062C12.9688 15.625 12.6875 15.7188 12.4062 15.5938C12.25 15.5312 12.0625 15.4375 11.9062 15.375L11.75 15.25C11.5938 15.1562 11.4375 15.0625 11.2812 14.9688C11.0625 14.7812 10.9688 14.4688 11.0625 14.1875L11.375 13.3125C11.0938 12.9688 10.875 12.5938 10.7188 12.1562L9.8125 11.9688C9.5 11.9062 9.28125 11.6875 9.25 11.4062C9.21875 11.1875 9.21875 10.9688 9.21875 10.75C9.21875 10.5625 9.21875 10.3438 9.25 10.125C9.28125 9.84375 9.5 9.59375 9.8125 9.53125L10.7188 9.34375C10.875 8.9375 11.0938 8.5625 11.375 8.21875L11.0625 7.34375C10.9688 7.0625 11.0625 6.75 11.2812 6.5625C11.4375 6.46875 11.5938 6.34375 11.75 6.25L11.9062 6.15625C12.0625 6.09375 12.2188 6 12.4062 5.9375C12.6875 5.8125 12.9688 5.90625 13.1875 6.125L13.8125 6.8125C14 6.78125 14.2188 6.75 14.4688 6.75C14.6875 6.75 14.9062 6.78125 15.0938 6.8125L15.7188 6.125C15.9375 5.90625 16.2188 5.8125 16.5 5.9375C16.6875 6 16.8438 6.09375 17 6.15625L17.1562 6.25C17.3125 6.34375 17.4688 6.46875 17.625 6.5625C17.8438 6.75 17.9375 7.0625 17.8438 7.34375L17.5312 8.21875C17.8125 8.5625 18.0312 8.9375 18.1875 9.34375L19.0938 9.53125C19.4062 9.59375 19.625 9.84375 19.6562 10.125C19.6875 10.3438 19.7188 10.5625 19.7188 10.75C19.7188 10.9688 19.6875 11.1875 19.6562 11.4062C19.625 11.6875 19.4062 11.9062 19.0938 11.9688L18.1875 12.1562C18.0312 12.5938 17.8125 12.9688 17.5312 13.3125L17.8438 14.1875C17.9375 14.4688 17.8438 14.7812 17.625 14.9688C17.4688 15.0625 17.3125 15.1562 17.1562 15.25L17 15.375C16.8438 15.4375 16.6562 15.5312 16.5 15.5938C16.2188 15.7188 15.9375 15.625 15.7188 15.4062L15.0938 14.7188ZM15.9688 10.75C15.9688 9.9375 15.2812 9.25 14.4688 9.25C13.625 9.25 12.9688 9.9375 12.9688 10.75C12.9688 11.5938 13.625 12.25 14.4688 12.25C15.2812 12.25 15.9688 11.5938 15.9688 10.75Z" fill="#F3930D"/>
</svg>
